# xmcd CD database file
#
# Track frame offsets:
#	150
#	14365
#	31760
#	50828
#	61815
#	85145
#	102708
#	121898
#	141700
#	154425
#
# Disc length: 2284 seconds
#
# Revision: 5
# Processed by: cddbd v1.5.2PL0 Copyright (c) Steve Scherf et al.
# Submitted via: CDex 1.51
#
DISCID=8d08ea0a
DTITLE=Lonnie Mack - Second Sight
DYEAR=1986
DGENRE=Blues
TTITLE0=Me And My Car
TTITLE1=Rock And Roll Bones
TTITLE2=Tough On Me, Tough On You
TTITLE3=Camp Washington Chili
TTITLE4=Cincinnati Jail
TTITLE5=Rock People
TTITLE6=Buffalo Woman
TTITLE7=Ain't Nobody
TTITLE8=Back On The Road Again
TTITLE9=A Song I Haven't Sung
EXTD=YEAR: 1986
EXTT0=
EXTT1=
EXTT2=
EXTT3=
EXTT4=
EXTT5=
EXTT6=
EXTT7=
EXTT8=
EXTT9=
PLAYORDER=
